<svg width="721" height="729" viewBox="0 0 721 729" fill="none" xmlns="http://www.w3.org/2000/svg">
<g filter="url(#filter0_f_107_1434)">
<circle cx="356.763" cy="364.763" r="164.193" fill="white"/>
<circle cx="356.763" cy="364.763" r="162.193" stroke="#07010D" stroke-width="4"/>
</g>
<path d="M227.664 235.664C296.056 167.272 406.943 167.271 475.336 235.664C543.728 304.056 543.728 414.944 475.336 483.336C406.943 551.729 296.056 551.728 227.664 483.336C159.272 414.943 159.272 304.057 227.664 235.664Z" fill="white" stroke="#07010D" stroke-width="4"/>
<path d="M360.823 424.476C378.069 424.476 392.051 438.457 392.051 455.704C392.051 472.951 378.069 486.932 360.823 486.932C343.576 486.932 329.595 472.95 329.595 455.704C329.595 438.457 343.576 424.477 360.823 424.476Z" fill="#EBEBEB" stroke="#07010D" stroke-width="3"/>
<path d="M360.802 424.476C361.43 424.476 362.053 424.495 362.672 424.532C346.542 424.83 333.127 436.292 329.853 451.53C331.893 436.265 344.965 424.476 360.802 424.476Z" fill="#DFDFDF" stroke="#07010D" stroke-width="3"/>
<path d="M247.453 284.31C271.558 284.087 291.28 303.447 291.503 327.552C291.726 351.656 272.366 371.378 248.261 371.601C224.156 371.824 204.435 352.464 204.212 328.359C203.989 304.254 223.349 284.533 247.453 284.31Z" fill="#EBEBEB" stroke="#07010D" stroke-width="3"/>
<path d="M247.845 284.316C253.115 284.316 258.162 285.254 262.834 286.97C259.143 286.023 255.274 285.518 251.284 285.518C225.514 285.519 204.637 306.395 204.637 332.166C204.637 332.969 204.66 333.768 204.7 334.56C204.371 332.41 204.197 330.207 204.197 327.964C204.197 303.85 223.731 284.316 247.845 284.316Z" fill="#DFDFDF" stroke="#07010D" stroke-width="3"/>
<path d="M443.741 247.51C453.515 247.51 461.437 255.433 461.437 265.207C461.437 274.98 453.514 282.902 443.741 282.902C433.968 282.902 426.045 274.98 426.045 265.207C426.045 255.433 433.968 247.51 443.741 247.51Z" fill="#EBEBEB" stroke="#07010D" stroke-width="3"/>
<mask id="path-9-inside-1_107_1434" fill="white">
<path d="M426.008 266.998C426.008 256.391 434.596 247.802 445.203 247.802C450.765 247.802 455.77 250.191 459.271 253.961C455.79 249.162 450.126 246.01 443.741 246.01C433.134 246.01 424.545 254.599 424.545 265.206C424.545 270.252 426.502 274.825 429.674 278.244C427.388 275.072 426.008 271.2 426.008 266.998Z"/>
</mask>
<path d="M426.008 266.998C426.008 256.391 434.596 247.802 445.203 247.802C450.765 247.802 455.77 250.191 459.271 253.961C455.79 249.162 450.126 246.01 443.741 246.01C433.134 246.01 424.545 254.599 424.545 265.206C424.545 270.252 426.502 274.825 429.674 278.244C427.388 275.072 426.008 271.2 426.008 266.998Z" fill="#DFDFDF"/>
<path d="M459.271 253.961L457.073 256.002L461.699 252.199L459.271 253.961ZM429.674 278.244L427.474 280.284L432.107 276.49L429.674 278.244ZM426.008 266.998H429.008C429.008 258.048 436.253 250.802 445.203 250.802V247.802V244.802C432.939 244.802 423.008 254.734 423.008 266.998H426.008ZM445.203 247.802V250.802C449.886 250.802 454.109 252.811 457.073 256.002L459.271 253.961L461.469 251.919C457.431 247.572 451.643 244.802 445.203 244.802V247.802ZM459.271 253.961L461.699 252.199C457.683 246.662 451.136 243.01 443.741 243.01V246.01V249.01C449.117 249.01 453.897 251.661 456.843 255.722L459.271 253.961ZM443.741 246.01V243.01C431.477 243.01 421.545 252.942 421.545 265.206H424.545H427.545C427.545 256.256 434.791 249.01 443.741 249.01V246.01ZM424.545 265.206H421.545C421.545 271.046 423.813 276.338 427.474 280.284L429.674 278.244L431.873 276.204C429.191 273.312 427.545 269.459 427.545 265.206H424.545ZM429.674 278.244L432.107 276.49C430.165 273.794 429.008 270.529 429.008 266.998H426.008H423.008C423.008 271.87 424.61 276.35 427.24 279.998L429.674 278.244Z" fill="#07010D" mask="url(#path-9-inside-1_107_1434)"/>
<path d="M317.235 212.867C325.964 204.138 340.115 204.139 348.844 212.867C357.572 221.595 357.572 235.747 348.844 244.475C340.115 253.204 325.964 253.204 317.235 244.475C308.507 235.747 308.507 221.595 317.235 212.867Z" fill="#EBEBEB" stroke="#07010D" stroke-width="3"/>
<mask id="path-12-inside-2_107_1434" fill="white">
<path d="M311.014 230.892C311.014 217.711 321.704 207.042 334.865 207.042C341.785 207.042 347.985 210.007 352.352 214.703C348.006 208.73 341.003 204.838 333.053 204.838C319.871 204.838 309.202 215.527 309.202 228.688C309.202 234.95 311.632 240.634 315.587 244.898C312.724 240.964 311.035 236.144 311.035 230.913L311.014 230.892Z"/>
</mask>
<path d="M311.014 230.892C311.014 217.711 321.704 207.042 334.865 207.042C341.785 207.042 347.985 210.007 352.352 214.703C348.006 208.73 341.003 204.838 333.053 204.838C319.871 204.838 309.202 215.527 309.202 228.688C309.202 234.95 311.632 240.634 315.587 244.898C312.724 240.964 311.035 236.144 311.035 230.913L311.014 230.892Z" fill="#DFDFDF"/>
<path d="M311.014 230.892H308.014V232.136L308.895 233.015L311.014 230.892ZM352.352 214.703L350.154 216.746L354.777 212.938L352.352 214.703ZM315.587 244.898L313.387 246.938L318.012 243.133L315.587 244.898ZM311.035 230.913H314.035V229.669L313.155 228.79L311.035 230.913ZM311.014 230.892H314.014C314.014 219.369 323.359 210.042 334.865 210.042V207.042V204.042C320.049 204.042 308.014 216.052 308.014 230.892H311.014ZM334.865 207.042V210.042C340.905 210.042 346.323 212.625 350.154 216.746L352.352 214.703L354.549 212.661C349.647 207.389 342.666 204.042 334.865 204.042V207.042ZM352.352 214.703L354.777 212.938C349.896 206.23 342.011 201.838 333.053 201.838V204.838V207.838C339.994 207.838 346.115 211.231 349.926 216.468L352.352 214.703ZM333.053 204.838V201.838C318.212 201.838 306.202 213.872 306.202 228.688H309.202H312.202C312.202 217.182 321.529 207.838 333.053 207.838V204.838ZM309.202 228.688H306.202C306.202 235.744 308.944 242.148 313.387 246.938L315.587 244.898L317.786 242.858C314.32 239.121 312.202 234.156 312.202 228.688H309.202ZM315.587 244.898L318.012 243.133C315.508 239.691 314.035 235.486 314.035 230.913H311.035H308.035C308.035 236.803 309.94 242.237 313.161 246.663L315.587 244.898ZM311.035 230.913L313.155 228.79L313.134 228.769L311.014 230.892L308.895 233.015L308.915 233.036L311.035 230.913Z" fill="#07010D" mask="url(#path-12-inside-2_107_1434)"/>
<path d="M368.07 201.147C373.4 201.147 377.733 205.481 377.734 210.81C377.734 216.14 373.4 220.473 368.07 220.473C362.741 220.473 358.407 216.14 358.407 210.81C358.408 205.481 362.741 201.147 368.07 201.147Z" fill="#EBEBEB" stroke="#07010D" stroke-width="3"/>
<mask id="path-15-inside-3_107_1434" fill="white">
<path d="M357.773 211.861C357.773 205.702 362.778 200.698 368.937 200.698C372.17 200.698 375.074 202.077 377.113 204.281C375.095 201.48 371.799 199.668 368.092 199.668C361.934 199.668 356.929 204.673 356.929 210.831C356.929 213.756 358.062 216.413 359.915 218.411C358.577 216.577 357.794 214.312 357.794 211.881L357.773 211.861Z"/>
</mask>
<path d="M357.773 211.861C357.773 205.702 362.778 200.698 368.937 200.698C372.17 200.698 375.074 202.077 377.113 204.281C375.095 201.48 371.799 199.668 368.092 199.668C361.934 199.668 356.929 204.673 356.929 210.831C356.929 213.756 358.062 216.413 359.915 218.411C358.577 216.577 357.794 214.312 357.794 211.881L357.773 211.861Z" fill="#DFDFDF"/>
<path d="M357.773 211.861H354.773V213.104L355.653 213.983L357.773 211.861ZM377.113 204.281L374.911 206.319L379.547 202.527L377.113 204.281ZM359.915 218.411L357.716 220.451L362.338 216.641L359.915 218.411ZM357.794 211.881H360.794V210.638L359.914 209.759L357.794 211.881ZM357.773 211.861H360.773C360.773 207.359 364.435 203.698 368.937 203.698V200.698V197.698C361.121 197.698 354.773 204.046 354.773 211.861H357.773ZM368.937 200.698V203.698C371.295 203.698 373.413 204.699 374.911 206.319L377.113 204.281L379.315 202.244C376.736 199.456 373.045 197.698 368.937 197.698V200.698ZM377.113 204.281L379.547 202.527C376.985 198.972 372.798 196.668 368.092 196.668V199.668V202.668C370.801 202.668 373.204 203.988 374.679 206.035L377.113 204.281ZM368.092 199.668V196.668C360.277 196.668 353.929 203.016 353.929 210.831H356.929H359.929C359.929 206.329 363.591 202.668 368.092 202.668V199.668ZM356.929 210.831H353.929C353.929 214.549 355.373 217.926 357.716 220.451L359.915 218.411L362.114 216.37C360.75 214.9 359.929 212.962 359.929 210.831H356.929ZM359.915 218.411L362.338 216.641C361.366 215.31 360.794 213.661 360.794 211.881H357.794H354.794C354.794 214.963 355.788 217.845 357.493 220.18L359.915 218.411ZM357.794 211.881L359.914 209.759L359.894 209.739L357.773 211.861L355.653 213.983L355.673 214.004L357.794 211.881Z" fill="#07010D" mask="url(#path-15-inside-3_107_1434)"/>
<path d="M191.536 349.834C196.866 349.834 201.199 354.167 201.199 359.497C201.199 364.827 196.866 369.161 191.536 369.161C186.206 369.161 181.873 364.827 181.873 359.497C181.873 354.168 186.206 349.834 191.536 349.834Z" fill="#EBEBEB" stroke="#07010D" stroke-width="3"/>
<mask id="path-18-inside-4_107_1434" fill="white">
<path d="M181.239 360.548C181.239 354.389 186.244 349.384 192.402 349.384C195.636 349.384 198.54 350.764 200.579 352.968C198.56 350.167 195.265 348.355 191.557 348.355C185.399 348.355 180.394 353.359 180.394 359.518C180.394 362.443 181.527 365.099 183.381 367.097C182.042 365.264 181.259 362.999 181.259 360.568L181.239 360.548Z"/>
</mask>
<path d="M181.239 360.548C181.239 354.389 186.244 349.384 192.402 349.384C195.636 349.384 198.54 350.764 200.579 352.968C198.56 350.167 195.265 348.355 191.557 348.355C185.399 348.355 180.394 353.359 180.394 359.518C180.394 362.443 181.527 365.099 183.381 367.097C182.042 365.264 181.259 362.999 181.259 360.568L181.239 360.548Z" fill="#DFDFDF"/>
<path d="M181.239 360.548H178.239V361.79L179.117 362.669L181.239 360.548ZM200.579 352.968L198.377 355.006L203.013 351.214L200.579 352.968ZM183.381 367.097L181.181 369.138L185.803 365.328L183.381 367.097ZM181.259 360.568H184.259V359.326L183.381 358.447L181.259 360.568ZM181.239 360.548H184.239C184.239 356.046 187.9 352.384 192.402 352.384V349.384V346.384C184.587 346.384 178.239 352.732 178.239 360.548H181.239ZM192.402 349.384V352.384C194.76 352.384 196.878 353.386 198.377 355.006L200.579 352.968L202.781 350.931C200.201 348.142 196.511 346.384 192.402 346.384V349.384ZM200.579 352.968L203.013 351.214C200.451 347.659 196.264 345.355 191.557 345.355V348.355V351.355C194.266 351.355 196.67 352.675 198.145 354.722L200.579 352.968ZM191.557 348.355V345.355C183.742 345.355 177.394 351.703 177.394 359.518H180.394H183.394C183.394 355.016 187.056 351.355 191.557 351.355V348.355ZM180.394 359.518H177.394C177.394 363.236 178.838 366.613 181.181 369.138L183.381 367.097L185.58 365.057C184.215 363.586 183.394 361.649 183.394 359.518H180.394ZM183.381 367.097L185.803 365.328C184.831 363.996 184.259 362.348 184.259 360.568H181.259H178.259C178.259 363.65 179.253 366.532 180.958 368.867L183.381 367.097ZM181.259 360.568L183.381 358.447L183.36 358.426L181.239 360.548L179.117 362.669L179.138 362.69L181.259 360.568Z" fill="#07010D" mask="url(#path-18-inside-4_107_1434)"/>
<path d="M253.614 268.581C255.875 268.581 257.695 270.402 257.695 272.663C257.695 274.924 255.875 276.744 253.614 276.744C251.353 276.744 249.532 274.924 249.532 272.663C249.532 270.402 251.353 268.581 253.614 268.581Z" fill="#EBEBEB" stroke="#07010D" stroke-width="3"/>
<mask id="path-21-inside-5_107_1434" fill="white">
<path d="M248.464 273.177C248.464 270.088 250.957 267.596 254.046 267.596C255.653 267.596 257.115 268.296 258.124 269.388C257.115 267.987 255.467 267.081 253.613 267.081C250.524 267.081 248.032 269.573 248.032 272.662C248.032 274.125 248.609 275.464 249.515 276.452C248.856 275.525 248.444 274.413 248.444 273.177H248.464Z"/>
</mask>
<path d="M248.464 273.177C248.464 270.088 250.957 267.596 254.046 267.596C255.653 267.596 257.115 268.296 258.124 269.388C257.115 267.987 255.467 267.081 253.613 267.081C250.524 267.081 248.032 269.573 248.032 272.662C248.032 274.125 248.609 275.464 249.515 276.452C248.856 275.525 248.444 274.413 248.444 273.177H248.464Z" fill="#DFDFDF"/>
<path d="M248.464 273.177V276.177H251.464V273.177H248.464ZM258.124 269.388L255.921 271.424L260.558 267.634L258.124 269.388ZM249.515 276.452L247.303 278.479L251.96 274.714L249.515 276.452ZM248.444 273.177V270.177H245.444V273.177H248.444ZM248.464 273.177H251.464C251.464 271.745 252.613 270.596 254.046 270.596V267.596V264.596C249.3 264.596 245.464 268.431 245.464 273.177H248.464ZM254.046 267.596V270.596C254.771 270.596 255.449 270.913 255.921 271.424L258.124 269.388L260.327 267.351C258.781 265.679 256.534 264.596 254.046 264.596V267.596ZM258.124 269.388L260.558 267.634C259.005 265.479 256.466 264.081 253.613 264.081V267.081V270.081C254.468 270.081 255.224 270.495 255.69 271.141L258.124 269.388ZM253.613 267.081V264.081C248.867 264.081 245.032 267.916 245.032 272.662H248.032H251.032C251.032 271.23 252.181 270.081 253.613 270.081V267.081ZM248.032 272.662H245.032C245.032 274.922 245.922 276.972 247.303 278.479L249.515 276.452L251.726 274.425C251.295 273.955 251.032 273.328 251.032 272.662H248.032ZM249.515 276.452L251.96 274.714C251.619 274.235 251.444 273.721 251.444 273.177H248.444H245.444C245.444 275.105 246.092 276.815 247.07 278.191L249.515 276.452ZM248.444 273.177V276.177H248.464V273.177V270.177H248.444V273.177Z" fill="#07010D" mask="url(#path-21-inside-5_107_1434)"/>
<path d="M214.459 372.161C216.72 372.161 218.54 373.982 218.54 376.243C218.54 378.504 216.72 380.324 214.459 380.324C212.198 380.324 210.378 378.504 210.377 376.243C210.377 373.982 212.198 372.161 214.459 372.161Z" fill="#EBEBEB" stroke="#07010D" stroke-width="3"/>
<mask id="path-24-inside-6_107_1434" fill="white">
<path d="M209.31 376.757C209.31 373.668 211.802 371.176 214.892 371.176C216.498 371.176 217.96 371.876 218.97 372.968C217.96 371.567 216.313 370.661 214.459 370.661C211.37 370.661 208.877 373.153 208.877 376.243C208.877 377.705 209.454 379.044 210.36 380.032C209.701 379.105 209.289 377.993 209.289 376.757H209.31Z"/>
</mask>
<path d="M209.31 376.757C209.31 373.668 211.802 371.176 214.892 371.176C216.498 371.176 217.96 371.876 218.97 372.968C217.96 371.567 216.313 370.661 214.459 370.661C211.37 370.661 208.877 373.153 208.877 376.243C208.877 377.705 209.454 379.044 210.36 380.032C209.701 379.105 209.289 377.993 209.289 376.757H209.31Z" fill="#DFDFDF"/>
<path d="M209.31 376.757V379.757H212.31V376.757H209.31ZM218.97 372.968L216.767 375.004L221.404 371.214L218.97 372.968ZM210.36 380.032L208.149 382.059L212.805 378.294L210.36 380.032ZM209.289 376.757V373.757H206.289V376.757H209.289ZM209.31 376.757H212.31C212.31 375.325 213.459 374.176 214.892 374.176V371.176V368.176C210.145 368.176 206.31 372.011 206.31 376.757H209.31ZM214.892 371.176V374.176C215.617 374.176 216.294 374.493 216.767 375.004L218.97 372.968L221.172 370.931C219.627 369.259 217.379 368.176 214.892 368.176V371.176ZM218.97 372.968L221.404 371.214C219.851 369.059 217.311 367.661 214.459 367.661V370.661V373.661C215.314 373.661 216.07 374.075 216.536 374.722L218.97 372.968ZM214.459 370.661V367.661C209.713 367.661 205.877 371.496 205.877 376.243H208.877H211.877C211.877 374.81 213.026 373.661 214.459 373.661V370.661ZM208.877 376.243H205.877C205.877 378.502 206.768 380.553 208.149 382.059L210.36 380.032L212.572 378.005C212.141 377.535 211.877 376.908 211.877 376.243H208.877ZM210.36 380.032L212.805 378.294C212.465 377.815 212.289 377.301 212.289 376.757H209.289H206.289C206.289 378.685 206.937 380.396 207.915 381.771L210.36 380.032ZM209.289 376.757V379.757H209.31V376.757V373.757H209.289V376.757Z" fill="#07010D" mask="url(#path-24-inside-6_107_1434)"/>
<path d="M404.791 442.045C407.052 442.045 408.872 443.866 408.872 446.127C408.872 448.388 407.052 450.208 404.791 450.208C402.53 450.208 400.709 448.388 400.709 446.127C400.709 443.866 402.53 442.045 404.791 442.045Z" fill="#EBEBEB" stroke="#07010D" stroke-width="3"/>
<mask id="path-27-inside-7_107_1434" fill="white">
<path d="M399.642 446.642C399.642 443.552 402.134 441.06 405.223 441.06C406.83 441.06 408.292 441.76 409.302 442.852C408.292 441.451 406.645 440.545 404.791 440.545C401.701 440.545 399.209 443.037 399.209 446.127C399.209 447.589 399.786 448.928 400.692 449.916C400.033 448.99 399.621 447.877 399.621 446.642H399.642Z"/>
</mask>
<path d="M399.642 446.642C399.642 443.552 402.134 441.06 405.223 441.06C406.83 441.06 408.292 441.76 409.302 442.852C408.292 441.451 406.645 440.545 404.791 440.545C401.701 440.545 399.209 443.037 399.209 446.127C399.209 447.589 399.786 448.928 400.692 449.916C400.033 448.99 399.621 447.877 399.621 446.642H399.642Z" fill="#DFDFDF"/>
<path d="M399.642 446.642V449.642H402.642V446.642H399.642ZM409.302 442.852L407.099 444.888L411.736 441.098L409.302 442.852ZM400.692 449.916L398.481 451.944L403.137 448.178L400.692 449.916ZM399.621 446.642V443.642H396.621V446.642H399.621ZM399.642 446.642H402.642C402.642 445.209 403.791 444.06 405.223 444.06V441.06V438.06C400.477 438.06 396.642 441.895 396.642 446.642H399.642ZM405.223 441.06V444.06C405.949 444.06 406.626 444.377 407.099 444.888L409.302 442.852L411.504 440.815C409.959 439.143 407.711 438.06 405.223 438.06V441.06ZM409.302 442.852L411.736 441.098C410.183 438.943 407.643 437.545 404.791 437.545V440.545V443.545C405.646 443.545 406.402 443.959 406.868 444.606L409.302 442.852ZM404.791 440.545V437.545C400.045 437.545 396.209 441.38 396.209 446.127H399.209H402.209C402.209 444.694 403.358 443.545 404.791 443.545V440.545ZM399.209 446.127H396.209C396.209 448.386 397.099 450.437 398.481 451.944L400.692 449.916L402.904 447.889C402.473 447.419 402.209 446.792 402.209 446.127H399.209ZM400.692 449.916L403.137 448.178C402.797 447.699 402.621 447.185 402.621 446.642H399.621H396.621C396.621 448.57 397.269 450.28 398.247 451.655L400.692 449.916ZM399.621 446.642V449.642H399.642V446.642V443.642H399.621V446.642Z" fill="#07010D" mask="url(#path-27-inside-7_107_1434)"/>
<path d="M441.91 288.25C444.17 288.251 445.991 290.071 445.991 292.332C445.99 294.593 444.17 296.413 441.91 296.413C439.649 296.413 437.828 294.593 437.828 292.332C437.828 290.071 439.649 288.25 441.91 288.25Z" fill="#EBEBEB" stroke="#07010D" stroke-width="3"/>
<mask id="path-30-inside-8_107_1434" fill="white">
<path d="M436.738 292.847C436.738 289.757 439.23 287.265 442.32 287.265C443.926 287.265 445.389 287.966 446.398 289.057C445.389 287.657 443.741 286.75 441.887 286.75C438.798 286.75 436.306 289.243 436.306 292.332C436.306 293.794 436.882 295.133 437.789 296.122C437.13 295.195 436.718 294.083 436.718 292.847H436.738Z"/>
</mask>
<path d="M436.738 292.847C436.738 289.757 439.23 287.265 442.32 287.265C443.926 287.265 445.389 287.966 446.398 289.057C445.389 287.657 443.741 286.75 441.887 286.75C438.798 286.75 436.306 289.243 436.306 292.332C436.306 293.794 436.882 295.133 437.789 296.122C437.13 295.195 436.718 294.083 436.718 292.847H436.738Z" fill="#DFDFDF"/>
<path d="M436.738 292.847V295.847H439.738V292.847H436.738ZM446.398 289.057L444.195 291.094L448.832 287.303L446.398 289.057ZM437.789 296.122L435.577 298.149L440.233 294.383L437.789 296.122ZM436.718 292.847V289.847H433.718V292.847H436.718ZM436.738 292.847H439.738C439.738 291.414 440.887 290.265 442.32 290.265V287.265V284.265C437.573 284.265 433.738 288.101 433.738 292.847H436.738ZM442.32 287.265V290.265C443.045 290.265 443.723 290.583 444.195 291.094L446.398 289.057L448.601 287.021C447.055 285.349 444.808 284.265 442.32 284.265V287.265ZM446.398 289.057L448.832 287.303C447.279 285.149 444.74 283.75 441.887 283.75V286.75V289.75C442.742 289.75 443.498 290.165 443.964 290.811L446.398 289.057ZM441.887 286.75V283.75C437.141 283.75 433.306 287.586 433.306 292.332H436.306H439.306C439.306 290.899 440.455 289.75 441.887 289.75V286.75ZM436.306 292.332H433.306C433.306 294.591 434.196 296.642 435.577 298.149L437.789 296.122L440 294.095C439.569 293.624 439.306 292.998 439.306 292.332H436.306ZM437.789 296.122L440.233 294.383C439.893 293.905 439.718 293.39 439.718 292.847H436.718H433.718C433.718 294.775 434.366 296.485 435.344 297.86L437.789 296.122ZM436.718 292.847V295.847H436.738V292.847V289.847H436.718V292.847Z" fill="#07010D" mask="url(#path-30-inside-8_107_1434)"/>
<path d="M496.12 322.606C501.457 322.606 505.783 326.932 505.783 332.269C505.783 337.606 501.457 341.932 496.12 341.932C490.783 341.932 486.457 337.606 486.457 332.269C486.457 326.932 490.784 322.606 496.12 322.606Z" fill="#EBEBEB" stroke="#07010D" stroke-width="3"/>
<mask id="path-33-inside-9_107_1434" fill="white">
<path d="M485.802 333.319C485.802 327.161 490.807 322.156 496.965 322.156C500.199 322.156 503.103 323.536 505.142 325.74C503.123 322.939 499.828 321.126 496.121 321.126C489.962 321.126 484.957 326.131 484.957 332.29C484.957 335.214 486.09 337.871 487.944 339.869C486.605 338.036 485.822 335.77 485.822 333.34L485.802 333.319Z"/>
</mask>
<path d="M485.802 333.319C485.802 327.161 490.807 322.156 496.965 322.156C500.199 322.156 503.103 323.536 505.142 325.74C503.123 322.939 499.828 321.126 496.121 321.126C489.962 321.126 484.957 326.131 484.957 332.29C484.957 335.214 486.09 337.871 487.944 339.869C486.605 338.036 485.822 335.77 485.822 333.34L485.802 333.319Z" fill="#DFDFDF"/>
<path d="M485.802 333.319H482.802V334.561L483.679 335.439L485.802 333.319ZM505.142 325.74L502.94 327.777L507.576 323.986L505.142 325.74ZM487.944 339.869L485.745 341.91L490.366 338.1L487.944 339.869ZM485.822 333.34H488.822V332.099L487.945 331.22L485.822 333.34ZM485.802 333.319H488.802C488.802 328.818 492.464 325.156 496.965 325.156V322.156V319.156C489.15 319.156 482.802 325.504 482.802 333.319H485.802ZM496.965 322.156V325.156C499.324 325.156 501.442 326.158 502.94 327.777L505.142 325.74L507.344 323.702C504.764 320.914 501.074 319.156 496.965 319.156V322.156ZM505.142 325.74L507.576 323.986C505.014 320.431 500.827 318.126 496.121 318.126V321.126V324.126C498.829 324.126 501.233 325.447 502.708 327.494L505.142 325.74ZM496.121 321.126V318.126C488.305 318.126 481.957 324.474 481.957 332.29H484.957H487.957C487.957 327.788 491.619 324.126 496.121 324.126V321.126ZM484.957 332.29H481.957C481.957 336.008 483.402 339.384 485.745 341.91L487.944 339.869L490.143 337.829C488.779 336.358 487.957 334.421 487.957 332.29H484.957ZM487.944 339.869L490.366 338.1C489.394 336.768 488.822 335.119 488.822 333.34H485.822H482.822C482.822 336.421 483.816 339.304 485.521 341.638L487.944 339.869ZM485.822 333.34L487.945 331.22L487.925 331.2L485.802 333.319L483.679 335.439L483.699 335.46L485.822 333.34Z" fill="#07010D" mask="url(#path-33-inside-9_107_1434)"/>
<path d="M424.546 482.847C429.876 482.847 434.209 487.18 434.209 492.51C434.209 497.84 429.876 502.174 424.546 502.174C419.217 502.174 414.883 497.84 414.883 492.51C414.883 487.18 419.217 482.847 424.546 482.847Z" fill="#EBEBEB" stroke="#07010D" stroke-width="3"/>
<mask id="path-36-inside-10_107_1434" fill="white">
<path d="M414.228 493.54C414.228 487.381 419.233 482.376 425.391 482.376C428.625 482.376 431.529 483.756 433.568 485.96C431.549 483.159 428.254 481.347 424.547 481.347C418.388 481.347 413.383 486.352 413.383 492.51C413.383 495.435 414.516 498.092 416.37 500.089C415.031 498.256 414.248 495.991 414.248 493.56L414.228 493.54Z"/>
</mask>
<path d="M414.228 493.54C414.228 487.381 419.233 482.376 425.391 482.376C428.625 482.376 431.529 483.756 433.568 485.96C431.549 483.159 428.254 481.347 424.547 481.347C418.388 481.347 413.383 486.352 413.383 492.51C413.383 495.435 414.516 498.092 416.37 500.089C415.031 498.256 414.248 495.991 414.248 493.56L414.228 493.54Z" fill="#DFDFDF"/>
<path d="M414.228 493.54H411.228V494.78L412.103 495.658L414.228 493.54ZM433.568 485.96L431.366 487.998L436.002 484.206L433.568 485.96ZM416.37 500.089L414.171 502.13L418.792 498.32L416.37 500.089ZM414.248 493.56H417.248V492.32L416.373 491.442L414.248 493.56ZM414.228 493.54H417.228C417.228 489.038 420.89 485.376 425.391 485.376V482.376V479.376C417.576 479.376 411.228 485.725 411.228 493.54H414.228ZM425.391 482.376V485.376C427.75 485.376 429.867 486.378 431.366 487.998L433.568 485.96L435.77 483.923C433.19 481.135 429.5 479.376 425.391 479.376V482.376ZM433.568 485.96L436.002 484.206C433.44 480.651 429.253 478.347 424.547 478.347V481.347V484.347C427.255 484.347 429.659 485.667 431.134 487.714L433.568 485.96ZM424.547 481.347V478.347C416.731 478.347 410.383 484.695 410.383 492.51H413.383H416.383C416.383 488.008 420.045 484.347 424.547 484.347V481.347ZM413.383 492.51H410.383C410.383 496.228 411.827 499.605 414.171 502.13L416.37 500.089L418.569 498.049C417.205 496.579 416.383 494.641 416.383 492.51H413.383ZM416.37 500.089L418.792 498.32C417.82 496.989 417.248 495.34 417.248 493.56H414.248H411.248C411.248 496.642 412.242 499.524 413.947 501.859L416.37 500.089ZM414.248 493.56L416.373 491.442L416.352 491.422L414.228 493.54L412.103 495.658L412.124 495.678L414.248 493.56Z" fill="#07010D" mask="url(#path-36-inside-10_107_1434)"/>
<path d="M406.522 398.792C415.646 398.792 423.043 406.19 423.043 415.315C423.043 424.439 415.646 431.836 406.522 431.836C397.397 431.836 390 424.439 389.999 415.315C389.999 406.19 397.397 398.792 406.522 398.792Z" fill="#EBEBEB" stroke="#07010D" stroke-width="3"/>
<mask id="path-39-inside-11_107_1434" fill="white">
<path d="M389.857 417.003C389.857 407.055 397.931 398.981 407.879 398.981C413.111 398.981 417.786 401.206 421.082 404.769C417.807 400.258 412.513 397.313 406.499 397.313C396.551 397.313 388.477 405.387 388.477 415.335C388.477 420.072 390.31 424.356 393.297 427.569C391.134 424.603 389.857 420.958 389.857 417.003Z"/>
</mask>
<path d="M389.857 417.003C389.857 407.055 397.931 398.981 407.879 398.981C413.111 398.981 417.786 401.206 421.082 404.769C417.807 400.258 412.513 397.313 406.499 397.313C396.551 397.313 388.477 405.387 388.477 415.335C388.477 420.072 390.31 424.356 393.297 427.569C391.134 424.603 389.857 420.958 389.857 417.003Z" fill="#DFDFDF"/>
<path d="M421.082 404.769L418.879 406.806L423.509 403.006L421.082 404.769ZM393.297 427.569L391.1 429.612L395.721 425.802L393.297 427.569ZM389.857 417.003H392.857C392.857 408.712 399.588 401.981 407.879 401.981V398.981V395.981C396.274 395.981 386.857 405.398 386.857 417.003H389.857ZM407.879 398.981V401.981C412.235 401.981 416.124 403.827 418.879 406.806L421.082 404.769L423.284 402.732C419.448 398.584 413.986 395.981 407.879 395.981V398.981ZM421.082 404.769L423.509 403.006C419.699 397.758 413.522 394.313 406.499 394.313V397.313V400.313C411.505 400.313 415.915 402.759 418.654 406.531L421.082 404.769ZM406.499 397.313V394.313C394.894 394.313 385.477 403.73 385.477 415.335H388.477H391.477C391.477 407.044 398.208 400.313 406.499 400.313V397.313ZM388.477 415.335H385.477C385.477 420.866 387.622 425.87 391.1 429.612L393.297 427.569L395.494 425.527C392.999 422.842 391.477 419.279 391.477 415.335H388.477ZM393.297 427.569L395.721 425.802C393.919 423.331 392.857 420.3 392.857 417.003H389.857H386.857C386.857 421.616 388.349 425.876 390.873 429.337L393.297 427.569Z" fill="#07010D" mask="url(#path-39-inside-11_107_1434)"/>
<path d="M295.384 446.802C304.509 446.803 311.906 454.2 311.906 463.325C311.905 472.449 304.509 479.846 295.384 479.846C286.259 479.846 278.862 472.449 278.862 463.325C278.862 454.2 286.259 446.802 295.384 446.802Z" fill="#EBEBEB" stroke="#07010D" stroke-width="3"/>
<mask id="path-42-inside-12_107_1434" fill="white">
<path d="M278.742 465.013C278.742 455.065 286.815 446.991 296.764 446.991C301.995 446.991 306.671 449.215 309.966 452.779C306.691 448.268 301.398 445.323 295.384 445.323C285.436 445.323 277.362 453.397 277.362 463.345C277.362 468.082 279.195 472.366 282.181 475.579C280.019 472.613 278.742 468.968 278.742 465.013Z"/>
</mask>
<path d="M278.742 465.013C278.742 455.065 286.815 446.991 296.764 446.991C301.995 446.991 306.671 449.215 309.966 452.779C306.691 448.268 301.398 445.323 295.384 445.323C285.436 445.323 277.362 453.397 277.362 463.345C277.362 468.082 279.195 472.366 282.181 475.579C280.019 472.613 278.742 468.968 278.742 465.013Z" fill="#DFDFDF"/>
<path d="M309.966 452.779L307.764 454.816L312.394 451.016L309.966 452.779ZM282.181 475.579L279.984 477.621L284.605 473.812L282.181 475.579ZM278.742 465.013H281.742C281.742 456.722 288.472 449.991 296.764 449.991V446.991V443.991C285.159 443.991 275.742 453.408 275.742 465.013H278.742ZM296.764 446.991V449.991C301.119 449.991 305.009 451.837 307.764 454.816L309.966 452.779L312.168 450.742C308.332 446.594 302.871 443.991 296.764 443.991V446.991ZM309.966 452.779L312.394 451.016C308.583 445.767 302.406 442.323 295.384 442.323V445.323V448.323C300.39 448.323 304.799 450.769 307.538 454.541L309.966 452.779ZM295.384 445.323V442.323C283.779 442.323 274.362 451.74 274.362 463.345H277.362H280.362C280.362 455.053 287.092 448.323 295.384 448.323V445.323ZM277.362 463.345H274.362C274.362 468.875 276.506 473.88 279.984 477.621L282.181 475.579L284.379 473.537C281.883 470.852 280.362 467.288 280.362 463.345H277.362ZM282.181 475.579L284.605 473.812C282.803 471.34 281.742 468.31 281.742 465.013H278.742H275.742C275.742 469.625 277.234 473.886 279.757 477.347L282.181 475.579Z" fill="#07010D" mask="url(#path-42-inside-12_107_1434)"/>
<path opacity="0.2" d="M312.419 468.391C266.159 468.185 223.36 453.418 188.346 428.475C215.121 491.748 277.652 536.298 350.708 536.628C448.542 537.081 528.209 458.134 528.642 360.301C528.724 342.773 526.211 325.843 521.557 309.839C496.346 401.597 412.127 468.824 312.419 468.371V468.391Z" fill="#B8B8B8"/>
<path opacity="0.2" d="M327.103 500.254C283.295 500.048 242.596 486.804 208.673 464.21C240.742 507.895 292.357 536.36 350.707 536.607C447.058 537.039 525.737 460.461 528.517 364.688C496.531 444.479 418.284 500.645 327.103 500.233V500.254Z" fill="#B8B8B8"/>
<defs>
<filter id="filter0_f_107_1434" x="-7.43047" y="0.569275" width="728.387" height="728.387" filterUnits="userSpaceOnUse" color-interpolation-filters="sRGB">
<feFlood flood-opacity="0" result="BackgroundImageFix"/>
<feBlend mode="normal" in="SourceGraphic" in2="BackgroundImageFix" result="shape"/>
<feGaussianBlur stdDeviation="100" result="effect1_foregroundBlur_107_1434"/>
</filter>
</defs>
</svg>
